<svg width="24" height="30" viewBox="0 0 24 30" fill="none" xmlns="http://www.w3.org/2000/svg">
<path d="M8.8776 15.3629C9.55082 15.6066 10.3007 15.965 10.4775 16.7315L10.4831 16.7564C10.5717 17.1412 10.5075 17.5453 10.3043 17.8839C9.82064 18.6895 8.70101 18.7368 7.87621 18.9274L7.87234 18.926L3.28326 19.9863C2.81212 20.0952 2.33958 20.2151 1.85174 20.1801C1.27825 20.1387 0.806465 19.9697 0.487315 19.4646C0.0515092 18.7746 0.0302406 17.757 0.0251431 16.9641C0.0182773 16.087 0.158293 15.2149 0.439387 14.3839C0.603913 13.8976 0.938062 13.4074 1.42437 13.2034C1.95785 12.9796 2.6084 13.1538 3.13584 13.3155L8.8776 15.3629ZM18.8966 9.67826C19.2757 9.32577 19.5608 9.11531 19.8242 8.98435C20.4972 8.62483 21.297 8.95916 21.7873 9.45578C22.4032 10.0796 22.9103 10.8022 23.2874 11.5936C23.6293 12.3088 24.0543 13.2332 23.9627 14.0472C23.9152 14.6201 23.5241 15.013 23.0484 15.2891C22.6255 15.5345 22.1479 15.6341 21.6773 15.7429L15.7048 17.1228C14.8805 17.3239 13.9863 16.8484 13.7937 15.9955L13.7881 15.9707C13.6264 15.2124 14.1344 14.5507 14.6284 14.0383L18.8966 9.67826ZM12.5977 14.1052C13.0305 13.5614 13.0294 12.751 13.0681 12.0885C13.1984 9.87483 13.3356 7.66082 13.4443 5.44594C13.4858 4.60702 13.5761 3.77941 13.5262 2.93411C13.4851 2.23675 13.4801 1.43609 13.0398 0.863823C12.2626 -0.145362 10.6054 -0.0624548 9.47465 0.0941025C9.12584 0.142312 8.77958 0.207504 8.43711 0.289448C8.09294 0.372062 7.75223 0.462352 7.4189 0.569048C6.3339 0.924465 4.80852 1.57683 4.55025 2.82706C4.40465 3.53385 4.74969 4.25682 5.01734 4.90185C5.34182 5.6837 5.78495 6.38803 6.18888 7.12406C7.25678 9.06709 8.34448 10.998 9.42907 12.931C9.90765 13.7839 10.5623 14.9183 11.7396 14.6447C12.0719 14.5674 12.3757 14.3617 12.5977 14.1052ZM9.42983 20.426C9.62066 20.1858 9.83031 19.9461 10.0792 19.7617C10.4581 19.477 10.9382 19.369 11.3946 19.5228C11.8326 19.6703 12.1737 20.0884 12.299 20.5382C12.4033 20.9126 12.4149 21.3292 12.4007 21.7052C12.3233 23.7607 12.3094 25.8257 12.1208 27.8749C12.0694 28.4325 11.9858 29.1079 11.571 29.5234C11.1864 29.9008 10.5982 30.0248 10.0891 29.9957C9.42067 29.9575 8.76019 29.8312 8.12476 29.6203C7.36119 29.3642 6.63529 29.0327 5.97221 28.5714C5.54285 28.2727 5.16728 27.8166 5.09925 27.2844C5.01283 26.6083 5.46815 25.9757 5.81952 25.441L9.42983 20.426ZM22.9267 22.5832C22.6671 22.2915 22.3125 22.0708 21.9906 21.876C20.1674 20.7732 18.2639 19.7532 16.3444 18.8288C15.6647 18.5014 14.7971 18.2739 14.185 18.8799C13.5055 19.5527 13.8445 20.5547 14.2311 21.28C15.1596 23.0201 16.029 24.8065 17.0518 26.4937C17.2953 26.8969 17.5381 27.3152 17.8893 27.6361C18.2845 27.9973 18.8134 28.0756 19.3214 27.9588C20.151 27.768 20.9405 27.0988 21.5341 26.5184C22.1086 25.953 22.6164 25.3366 23.0114 24.6308C23.3687 23.9925 23.4389 23.1584 22.9267 22.5832Z" fill="white"/>
</svg>
