<svg width="51" height="69" viewBox="0 0 51 69" fill="none" xmlns="http://www.w3.org/2000/svg">
<path d="M36.5379 48.3569L39.6932 43.2369L45.3873 41.2949L46.0182 35.3144L50.3022 31.0969L48.2654 25.4359L50.3022 19.7748L46.0183 15.5573L45.3875 9.57698L39.6933 7.63501L36.5381 2.51486L30.57 3.23545L25.5002 0L20.4305 3.23572L14.4625 2.51513L11.3073 7.63515L5.61314 9.57712L4.98231 15.5575L0.698242 19.775L2.73509 25.4361L0.698242 31.0972L4.98217 35.3145L5.61301 41.295L11.3071 43.237L14.4624 48.357L20.4305 47.6365L25.5002 50.8721L30.57 47.6365L36.5379 48.3569ZM8.05766 25.4361C8.05766 15.8182 15.8824 7.99349 25.5002 7.99349C35.1181 7.99349 42.9428 15.8182 42.9428 25.4361C42.9428 35.0539 35.1181 42.8786 25.5002 42.8786C15.8824 42.8786 8.05766 35.0539 8.05766 25.4361Z" fill="#0B3B4D"/>
<path d="M25.5005 12.0391C18.1133 12.0391 12.1034 18.0489 12.1034 25.4361C12.1034 32.8233 18.1133 38.8332 25.5005 38.8332C32.8876 38.8332 38.8975 32.8233 38.8975 25.4361C38.8975 18.0489 32.8876 12.0391 25.5005 12.0391ZM19.4763 51.8266L12.3769 52.6837L8.62593 46.5967L7.35077 46.162L1.85059 63.3535L11.7525 62.8089L19.4995 69L24.0583 54.751L19.4763 51.8266ZM42.375 46.5969L38.624 52.6837L31.5246 51.8266L26.9426 54.751L31.5014 69L39.2485 62.8089L49.1504 63.3535L43.6502 46.162L42.375 46.5969Z" fill="#0B3B4D"/>
</svg>
