<svg width="67" height="65" viewBox="0 0 67 65" fill="none" xmlns="http://www.w3.org/2000/svg">
<path d="M49.7123 51.0258C49.7146 52.6011 49.167 54.1278 48.164 55.3424C48.4729 56.1286 48.6307 56.9659 48.629 57.8106C48.6297 58.7016 48.4546 59.584 48.1137 60.4073C47.7729 61.2305 47.2729 61.9784 46.6425 62.6081C46.0132 63.2393 45.2652 63.7397 44.4418 64.0808C43.6183 64.4218 42.7356 64.5967 41.8443 64.5953H21.2754C20.522 64.5953 19.7994 64.296 19.2667 63.7633C18.7339 63.2306 18.4346 62.508 18.4346 61.7546V41.0339L22.3587 30.5135L22.8624 21.5918C22.8885 21.1318 23.0896 20.6993 23.4244 20.3829C23.7593 20.0665 24.2026 19.8902 24.6633 19.8902H25.6941C27.6192 19.8902 29.4388 20.8031 30.5669 22.3639C32.2339 24.6685 33.4566 27.463 33.1241 31.0399L31.0437 37.4569H43.8453C47.5851 37.4569 50.746 40.4115 50.7949 44.1506C50.8176 45.7568 50.2691 47.3189 49.2473 48.5584C49.5561 49.3443 49.7139 50.1814 49.7123 51.0258ZM5.217 64.5946H10.6922C11.4454 64.5946 12.1679 64.2954 12.7006 63.7629C13.2333 63.2303 13.5327 62.5079 13.5329 61.7546V41.0339C13.5329 40.2805 13.2336 39.5579 12.7009 39.0252C12.1681 38.4925 11.4456 38.1932 10.6922 38.1932H3.56583C3.17377 38.1932 2.78595 38.2743 2.42678 38.4315C2.06761 38.5887 1.74488 38.8186 1.47888 39.1066C1.21289 39.3947 1.0094 39.7346 0.881213 40.1051C0.75303 40.4757 0.702932 40.8687 0.734073 41.2595L2.38524 61.9802C2.44198 62.6923 2.76492 63.3569 3.28972 63.8416C3.81452 64.3262 4.50265 64.5946 5.217 64.5946ZM47.8928 8.67635C48.6145 7.97255 48.2164 6.74573 47.2187 6.60083L42.604 5.93015C42.4087 5.90188 42.2233 5.82656 42.0637 5.71069C41.9041 5.59481 41.775 5.44185 41.6876 5.26499L39.6245 1.08359C39.1774 0.179004 37.8885 0.179004 37.4421 1.08359L35.3783 5.26499C35.201 5.62379 34.8587 5.87288 34.462 5.93015L29.8472 6.60083C28.8495 6.74573 28.4514 7.97255 29.1731 8.67635L32.5127 11.9311C32.7991 12.2105 32.9302 12.6135 32.8625 13.0075L32.0739 17.6043C31.9034 18.5979 32.9467 19.3562 33.8396 18.887L37.9672 16.7169C38.1417 16.6252 38.3358 16.5773 38.533 16.5773C38.7301 16.5773 38.9243 16.6252 39.0988 16.7169L43.2263 18.887C44.1192 19.3562 45.1625 18.5979 44.992 17.6036L44.2034 13.0082C44.1702 12.8138 44.1847 12.6142 44.2458 12.4267C44.3069 12.2392 44.4126 12.0693 44.5539 11.9318L47.8928 8.67635ZM65.9225 26.98C66.6125 26.3065 66.2316 25.1335 65.278 24.9949L60.8648 24.3538C60.6781 24.3268 60.5008 24.2548 60.3481 24.1439C60.1955 24.0331 60.072 23.8868 59.9885 23.7177L58.0151 19.7191C57.5887 18.8539 56.3557 18.8539 55.9292 19.7191L53.9558 23.7177C53.7861 24.0606 53.459 24.2986 53.0795 24.3538L48.667 24.9955C47.7127 25.1335 47.3318 26.3065 48.0225 26.9793L51.2152 30.0919C51.4898 30.3596 51.6147 30.7446 51.5498 31.1221L50.7963 35.5167C50.6328 36.4668 51.6312 37.192 52.4841 36.7428L56.4309 34.668C56.5979 34.5801 56.7838 34.5342 56.9725 34.5342C57.1612 34.5342 57.3471 34.5801 57.5142 34.668L61.461 36.7428C62.3138 37.1913 63.3116 36.4668 63.1487 35.5167L62.3945 31.1214C62.3627 30.9355 62.3765 30.7447 62.4348 30.5653C62.4931 30.386 62.5941 30.2235 62.7292 30.0919L65.9225 26.98ZM19.0832 17.4269C19.1797 17.3329 19.2478 17.2138 19.2801 17.083C19.3123 16.9523 19.3074 16.8151 19.2657 16.6871C19.2241 16.559 19.1474 16.4451 19.0445 16.3584C18.9415 16.2716 18.8163 16.2153 18.683 16.196L15.9472 15.7985C15.8314 15.7818 15.7213 15.7371 15.6266 15.6683C15.5319 15.5996 15.4553 15.5088 15.4035 15.4039L14.1801 12.924C14.1204 12.8034 14.0282 12.7019 13.9139 12.6309C13.7996 12.56 13.6678 12.5223 13.5332 12.5223C13.3987 12.5223 13.2668 12.56 13.1525 12.6309C13.0382 12.7019 12.946 12.8034 12.8864 12.924L11.6623 15.4039C11.6105 15.5087 11.5341 15.5994 11.4395 15.6682C11.3449 15.7369 11.235 15.7817 11.1193 15.7985L8.38272 16.196C8.24945 16.2153 8.12426 16.2716 8.02129 16.3584C7.91832 16.4451 7.84169 16.559 7.80005 16.6871C7.75841 16.8151 7.75344 16.9523 7.78568 17.083C7.81793 17.2138 7.88611 17.3329 7.98252 17.4269L9.96282 19.3569C10.1333 19.5225 10.2112 19.7619 10.1705 19.9958L9.70338 22.7213C9.68078 22.8539 9.69571 22.9902 9.74648 23.1149C9.79724 23.2395 9.88183 23.3474 9.99068 23.4265C10.0995 23.5055 10.2283 23.5526 10.3625 23.5624C10.4967 23.5721 10.631 23.5442 10.7501 23.4817L13.1975 22.1948C13.408 22.0844 13.6592 22.0844 13.8689 22.1948L16.317 23.4817C16.4362 23.5442 16.5704 23.5721 16.7046 23.5624C16.8388 23.5526 16.9676 23.5055 17.0765 23.4265C17.1853 23.3474 17.2699 23.2395 17.3207 23.1149C17.3714 22.9902 17.3864 22.8539 17.3638 22.7213L16.8966 19.9958C16.8559 19.7612 16.9339 19.5232 17.1036 19.3569L19.0832 17.4269Z" fill="#0B3B4D"/>
</svg>
