<svg width="53" height="61" viewBox="0 0 53 61" fill="none" xmlns="http://www.w3.org/2000/svg">
<path d="M49.1189 10.3606L28.2464 0.743752L27.923 0.614378C26.9891 0.377076 26.0106 0.377076 25.0767 0.614378L24.7533 0.743752L3.88079 10.3606C2.89491 10.8145 2.069 11.5555 1.51115 12.4865C0.953298 13.4176 0.689485 14.4953 0.754231 15.5788L1.48736 27.8263C1.90339 34.8706 4.31353 41.6514 8.43672 47.3781C12.5599 53.1047 18.2262 57.5412 24.7749 60.17C25.3237 60.417 25.9196 60.5421 26.5214 60.5366C27.0935 60.5454 27.6605 60.4275 28.1817 60.1916C34.7384 57.5692 40.4138 53.1356 44.5449 47.4084C48.6761 41.6813 51.0927 34.897 51.5124 27.8478L52.2455 15.6003C52.3147 14.5133 52.053 13.4309 51.4949 12.4955C50.9368 11.5602 50.1084 10.8159 49.1189 10.3606ZM37.8202 25.4544L26.3058 38.3919C26.1185 38.6062 25.8906 38.7814 25.6352 38.9072C25.3798 39.033 25.1021 39.1071 24.818 39.125H24.7102C24.1683 39.129 23.6449 38.9288 23.2439 38.5644L15.3305 31.2763C14.9102 30.8874 14.6615 30.3475 14.6393 29.7753C14.617 29.2031 14.823 28.6455 15.2119 28.2252C15.6008 27.8048 16.1407 27.5562 16.7129 27.534C17.2851 27.5117 17.8427 27.7177 18.263 28.1066L24.5592 33.9069L34.5858 22.6081C34.9707 22.2074 35.4954 21.9708 36.0505 21.9475C36.6056 21.9242 37.1483 22.116 37.5654 22.4831C37.9825 22.8501 38.2418 23.364 38.2892 23.9176C38.3367 24.4711 38.1687 25.0217 37.8202 25.4544Z" fill="#0B3B4D"/>
</svg>
