<svg width="18" height="18" viewBox="0 0 18 18" fill="none" xmlns="http://www.w3.org/2000/svg">
<path d="M18 9C18 9.768 17.0565 10.401 16.8675 11.109C16.6725 11.841 17.166 12.861 16.7955 13.5015C16.419 14.1525 15.2865 14.2305 14.7585 14.7585C14.2305 15.2865 14.1525 16.419 13.5015 16.7955C12.861 17.166 11.841 16.6725 11.109 16.8675C10.401 17.0565 9.768 18 9 18C8.232 18 7.599 17.0565 6.891 16.8675C6.159 16.6725 5.139 17.166 4.4985 16.7955C3.8475 16.419 3.7695 15.2865 3.2415 14.7585C2.7135 14.2305 1.581 14.1525 1.2045 13.5015C0.834 12.861 1.3275 11.841 1.1325 11.109C0.9435 10.401 0 9.768 0 9C0 8.232 0.9435 7.599 1.1325 6.891C1.3275 6.159 0.834 5.139 1.2045 4.4985C1.581 3.8475 2.7135 3.7695 3.2415 3.2415C3.7695 2.7135 3.8475 1.581 4.4985 1.2045C5.139 0.834 6.159 1.3275 6.891 1.1325C7.599 0.9435 8.232 0 9 0C9.768 0 10.401 0.9435 11.109 1.1325C11.841 1.3275 12.861 0.834 13.5015 1.2045C14.1525 1.581 14.2305 2.7135 14.7585 3.2415C15.2865 3.7695 16.419 3.8475 16.7955 4.4985C17.166 5.139 16.6725 6.159 16.8675 6.891C17.0565 7.599 18 8.232 18 9Z" fill="#B0C6C1"/>
<path d="M11.602 6.31795L8.17597 9.74395L6.39997 7.96945C6.21474 7.78433 5.96359 7.68033 5.70172 7.68033C5.43984 7.68033 5.18869 7.78433 5.00347 7.96945C4.81835 8.15467 4.71436 8.40582 4.71436 8.6677C4.71436 8.92957 4.81835 9.18072 5.00347 9.36595L7.49497 11.8574C7.67525 12.0375 7.91965 12.1387 8.17447 12.1387C8.42928 12.1387 8.67368 12.0375 8.85397 11.8574L12.997 7.71445C13.1821 7.52922 13.2861 7.27807 13.2861 7.0162C13.2861 6.75432 13.1821 6.50317 12.997 6.31795C12.9054 6.22629 12.7967 6.15359 12.677 6.10398C12.5573 6.05437 12.429 6.02884 12.2995 6.02884C12.1699 6.02884 12.0416 6.05437 11.9219 6.10398C11.8023 6.15359 11.6935 6.22629 11.602 6.31795Z" fill="#0B3B4D"/>
</svg>
